<?xml version="1.0" encoding="UTF-8" standalone="no"?>
<!-- Created with Inkscape (http://www.inkscape.org/) -->

<svg
   width="204.26694mm"
   height="37.647682mm"
   viewBox="0 0 204.26694 37.647682"
   version="1.1"
   id="svg5"
   xml:space="preserve"
   xmlns="http://www.w3.org/2000/svg"
   xmlns:svg="http://www.w3.org/2000/svg"><defs
     id="defs2"><clipPath
       id="74c57b0ffb-6"><path
         d="m 235.07031,207.78906 h 115.5 v 75 h -115.5 z m 0,0"
         clip-rule="nonzero"
         id="path1901" /></clipPath></defs><g
     id="layer1"
     transform="translate(-2.1794942,-97.859944)"><g
       id="g2087"
       transform="matrix(0.35277778,0,0,0.35277778,43.630886,31.539091)"><rect
         x="-117.50001"
         width="579.02435"
         fill="#004825"
         y="187.99612"
         height="106.71783"
         fill-opacity="1"
         id="rect1908"
         style="stroke-width:0.552401" /><g
         fill="#ffffff"
         fill-opacity="1"
         id="g1916"
         transform="translate(-167.1324,94.717429)"><g
           transform="translate(65.375687,180.63859)"
           id="g1914"><g
             id="g1912"><path
               d="M 76.840661,-20.029042 C 74.047671,-12.793329 69.492388,-6.9974385 63.178857,-2.6373015 56.784485,1.8773932 49.775738,4.1306724 42.144529,4.1306724 31.785001,4.1306724 22.92908,0.28708175 15.580808,-7.4041677 8.3901717,-14.94086 4.796875,-23.990584 4.796875,-34.557409 c 0,-5.246806 0.9539011,-10.237374 2.8617033,-14.967635 1.9078023,-4.652982 4.5471977,-8.752812 7.9222297,-12.299491 7.348272,-7.687181 16.204193,-11.53484 26.563721,-11.53484 7.631209,0 14.603579,2.180069 20.921153,6.540206 6.313533,4.437415 10.868814,10.24144 13.661804,17.408009 h -8.488103 c -4.033869,-7.459414 -10.052339,-12.413375 -18.05945,-14.85375 -2.643438,-0.73618 -5.691071,-1.106303 -9.150983,-1.106303 -3.45183,0 -6.976413,0.813458 -10.573752,2.440375 -3.601381,1.691993 -6.721769,3.945272 -9.361165,6.751704 -5.723407,5.987054 -8.58511,13.194296 -8.58511,21.621725 0,8.354218 2.861703,15.520786 8.58511,21.50784 5.796162,6.1416114 12.812994,9.2083491 21.050496,9.2083491 5.569813,0 10.711178,-1.4804943 15.424096,-4.4414829 4.623995,-2.9609882 8.217292,-6.8737242 10.783933,-11.7463392 z m 0,0"
               id="path1910"
               style="stroke-width:1.03798" /></g></g></g><g
         fill="#ffffff"
         fill-opacity="1"
         id="g1930"
         transform="matrix(1.2039298,0,0,1.06935,-222.97618,86.240137)"><g
           transform="translate(171.73414,180.63859)"
           id="g1928"><g
             id="g1926"><path
               d="m 15.4375,-7.453125 h 25.875 V 0 H 7.984375 V -72.40625 H 15.4375 Z m 0,0"
               id="path1924" /></g></g></g><g
         fill="#ffffff"
         fill-opacity="1"
         id="g1944"
         transform="translate(-188.9643,97.574102)"><g
           transform="translate(243.91735,181.74821)"
           id="g1942"><g
             id="g1940"><path
               d="M 19.703125,-26.609375 H 46 L 32.90625,-59.9375 Z M 64.625,0 H 56.53125 L 48.765625,-19.703125 H 16.921875 L 9.15625,0 H 1.0625 l 31.84375,-77.40625 z m 0,0"
               id="path1938" /></g></g></g><g
         clip-path="url(#74c57b0ffb-6)"
         id="g1948"
         transform="translate(87.701162,-3.2452898)"><path
           fill="#ffffff"
           d="m 247.86426,210.13521 c -1.11328,0.3125 -1.92187,1.29687 -2.39843,2.92968 -0.30469,1.04688 -0.51954,3.39063 -0.41797,4.61719 0.0195,0.22266 0.0469,0.6875 0.0664,1.03125 0.0312,0.58984 0.0547,0.98047 0.12891,1.97656 0.0352,0.44532 0.14453,1.64844 0.19922,2.19141 0.0195,0.17187 0.0469,0.46094 0.0664,0.64062 0.0156,0.1836 0.0469,0.45704 0.0625,0.60938 0.0195,0.15625 0.0508,0.4375 0.0664,0.625 0.0508,0.5 0.29688,2.37109 0.36719,2.76953 0.20312,1.17188 0.33203,1.73438 0.54297,2.38672 0.1289,0.38672 0.21484,0.625 0.25,0.66016 0.0156,0.0156 0.0273,0.0508 0.0273,0.0742 0,0.0898 0.37109,0.80469 0.58984,1.13282 0.53516,0.80859 1.27735,1.3125 2.10938,1.4375 l 0.16797,0.0234 -0.46094,0.36329 c -0.25781,0.19921 -0.50391,0.39062 -0.55078,0.42578 -0.0742,0.0625 -0.21484,0.17578 -0.70313,0.57422 -0.41015,0.33593 -1.1289,0.99609 -1.61328,1.48828 -0.47656,0.48047 -0.67968,0.69531 -1.1875,1.26562 -0.0937,0.10547 -0.5664,0.69141 -0.86718,1.07031 -0.19922,0.25782 -0.98829,1.42579 -1.1211,1.66407 -0.0273,0.0547 -0.12109,0.21875 -0.20312,0.36328 -0.13672,0.24609 -0.26953,0.51172 -0.40625,0.82422 -0.0312,0.0703 -0.0859,0.1875 -0.11719,0.25781 -0.0977,0.22266 -0.25391,0.65625 -0.35156,0.99219 -0.17578,0.59765 -0.1875,0.65625 -0.24219,0.97265 -0.0312,0.17188 -0.0586,0.32032 -0.0664,0.33203 -0.0469,0.0742 -0.082,1.20704 -0.0508,1.61329 0.16406,2.20703 1.48438,3.55468 3.28906,3.35937 0.19141,-0.0195 0.3711,-0.0508 0.40235,-0.0664 0.0273,-0.0117 0.11719,-0.0352 0.19531,-0.0508 0.13281,-0.0195 0.37109,-0.10156 0.67578,-0.22265 0.0937,-0.0352 0.64063,-0.3086 0.83594,-0.41407 0.0469,-0.0273 0.20312,-0.1289 0.34766,-0.22265 0.14453,-0.0977 0.26562,-0.17578 0.26953,-0.16797 0.0117,0.008 -0.0117,0.15625 -0.14844,0.91406 -0.0352,0.20703 -0.0898,0.54297 -0.11719,0.74219 -0.0273,0.19922 -0.0625,0.44141 -0.082,0.54297 -0.0156,0.0977 -0.0469,0.38672 -0.0664,0.64062 -0.0195,0.25391 -0.0508,0.58985 -0.0742,0.74219 -0.0547,0.38281 -0.0547,2.64844 0,3.03125 0.0234,0.15234 0.0625,0.44922 0.0898,0.66016 0.0703,0.55468 0.24219,1.40234 0.31641,1.5625 0.0156,0.0352 0.043,0.125 0.0625,0.19922 0.0234,0.11328 0.10156,0.34375 0.19531,0.58984 0.1914,0.50391 0.55469,1.16406 1.00781,1.82031 0.20703,0.29688 1.08203,1.16406 1.41016,1.39453 0.0781,0.0547 0.24218,0.17578 0.37109,0.26563 0.125,0.0898 0.28125,0.20312 0.34375,0.24609 0.51953,0.35938 0.87891,0.63281 1.10156,0.83985 0.11719,0.10937 0.21875,0.22265 0.21875,0.24218 0,0.082 -0.32422,0.29688 -0.80859,0.53125 -0.10938,0.0508 -0.20703,0.10157 -0.21484,0.11328 -0.008,0.008 -0.0898,0.0547 -0.17969,0.0977 -0.14453,0.0703 -0.54297,0.29297 -0.85156,0.47656 -1.4336,0.84766 -2.3125,2.53125 -2.03125,3.89453 0.30078,1.48438 1,2.30079 2.22265,2.60157 0.3086,0.0781 1.02344,0.0781 1.23438,0 0.082,-0.0274 0.16797,-0.0508 0.19531,-0.0508 0.0234,0 0.13672,-0.043 0.24609,-0.0899 0.57813,-0.25781 0.98438,-0.66015 1.46094,-1.44531 0.0977,-0.15625 0.375,-0.75 0.48438,-1.03516 0.0703,-0.17187 0.15234,-0.38672 0.1875,-0.47656 0.0352,-0.0859 0.0625,-0.17578 0.0625,-0.19531 0,-0.0195 0.0195,-0.0781 0.0469,-0.125 0.0234,-0.0469 0.0625,-0.14453 0.0859,-0.21485 0.0898,-0.29687 0.33984,-0.79687 0.47265,-0.95312 0.40235,-0.46875 1.47657,-0.39063 2.2461,0.16797 0.0508,0.0391 0.12109,0.082 0.14453,0.0898 0.0469,0.0195 0.94531,0.75781 0.98828,0.8125 0.0117,0.0117 0.19531,0.1836 0.41016,0.38281 0.21484,0.19922 0.44531,0.41407 0.51172,0.47266 0.16015,0.15234 0.625,0.54297 0.89062,0.75391 0.11719,0.0937 0.23047,0.18359 0.25,0.19922 0.0156,0.0156 0.10547,0.0781 0.19531,0.14062 0.0898,0.0625 0.17188,0.12109 0.1836,0.12891 0.0117,0.0156 0.0703,0.0547 0.41015,0.27343 0.71485,0.45704 2.02735,1.00391 2.98047,1.2461 0.57031,0.14062 1.21875,0.27344 1.71485,0.34375 0.1875,0.0273 0.42578,0.0625 0.52734,0.0781 0.0977,0.0195 0.37109,0.0508 0.60937,0.0703 0.23438,0.0195 0.50782,0.0508 0.60938,0.0664 0.0977,0.0156 0.52734,0.043 0.95312,0.0625 0.42579,0.0195 0.87891,0.0508 1.00391,0.0664 0.75,0.10156 8.42188,0.125 11.64844,0.0351 0.49609,-0.0156 1.55469,-0.043 2.34765,-0.0625 0.79688,-0.0195 1.9375,-0.0547 2.53907,-0.0703 0.60156,-0.0195 1.51953,-0.0469 2.04687,-0.0625 4.04297,-0.125 7.82031,-0.11328 8.86328,0.0274 0.125,0.0195 0.41407,0.0508 0.64063,0.0703 0.22656,0.0195 0.46484,0.0508 0.52734,0.0664 0.0625,0.0156 0.22656,0.043 0.36328,0.0625 1.00782,0.14063 1.84375,0.5 2.14844,0.92188 0.29688,0.41406 0.33203,0.67969 0.30469,2.25781 -0.0234,1.22656 -0.0195,1.28516 0.0976,1.84375 0.2461,1.1875 1.27344,2.07813 2.63672,2.28906 0.125,0.0195 0.3125,0.0508 0.41016,0.0664 0.29687,0.0547 1.71094,0.11328 2.45703,0.10938 0.76172,-0.008 2.14453,0.0391 2.40234,0.0859 0.28516,0.0508 0.64063,0.13282 0.69922,0.16407 0.0352,0.0156 0.15625,0.0703 0.26953,0.125 0.40235,0.17968 0.50391,0.35156 0.39063,0.67187 -0.11719,0.34375 -0.23438,0.50391 -1.07813,1.49609 -0.17187,0.20313 -0.36328,0.44141 -0.42968,0.53125 -0.19532,0.28125 -0.33594,0.48829 -0.36328,0.5586 -0.0195,0.0351 -0.0664,0.125 -0.10938,0.19531 -0.1875,0.30859 -0.26562,0.625 -0.26562,1.07422 v 0.41406 l 0.13671,0.27735 c 0.37891,0.76171 1.09766,1.1289 2.28125,1.17187 0.25,0.0117 0.51954,0.004 0.61329,-0.0156 0.0898,-0.0195 0.27343,-0.0508 0.41015,-0.0742 0.13672,-0.0195 0.26172,-0.0469 0.28125,-0.0625 0.0156,-0.0117 0.11719,-0.043 0.22266,-0.0625 0.10547,-0.0234 0.23047,-0.0625 0.28125,-0.0899 0.0469,-0.0234 0.10547,-0.0469 0.1289,-0.0469 0.082,0 0.78907,-0.36328 1.05469,-0.54688 0.21485,-0.14843 0.82031,-0.65234 0.83594,-0.69922 0.008,-0.0156 0.0742,-0.10156 0.15234,-0.1914 0.38282,-0.44141 0.60157,-0.78125 0.91016,-1.41016 0.26172,-0.53515 0.45703,-1.07812 0.58984,-1.64844 0.20313,-0.875 0.24219,-1.27734 0.28516,-2.99609 0.043,-1.58984 0.0664,-1.74219 0.40234,-2.58594 0.10938,-0.27734 0.375,-0.80468 0.59375,-1.19531 0.29688,-0.53125 0.66407,-1.16406 0.6836,-1.17969 0.0234,-0.0156 0.375,-0.61718 0.55078,-0.9375 0.10156,-0.1875 0.52734,-1.04297 0.62109,-1.2539 0.0859,-0.1836 0.21485,-0.53516 0.21485,-0.58203 0,-0.0234 0.0156,-0.0625 0.0351,-0.082 0.0195,-0.0195 0.0586,-0.11718 0.082,-0.21093 0.1211,-0.47657 0.14844,-0.57813 0.17578,-0.67188 0.0195,-0.0547 0.0469,-0.21094 0.0703,-0.34375 0.0195,-0.13672 0.0469,-0.32812 0.0664,-0.42578 0.0391,-0.23047 0.0391,-1.25781 0,-1.48828 -0.0156,-0.0977 -0.0469,-0.28125 -0.0664,-0.41016 -0.0234,-0.125 -0.0508,-0.27343 -0.0664,-0.32812 -0.15625,-0.53125 -0.35156,-1.09375 -0.40234,-1.15235 -0.0156,-0.0156 -0.0274,-0.0508 -0.0274,-0.0781 0,-0.0234 -0.0234,-0.0937 -0.0469,-0.14844 -0.0274,-0.0586 -0.0937,-0.20703 -0.15235,-0.33594 -0.0859,-0.19531 -0.26562,-0.49609 -0.52734,-0.875 -0.0312,-0.043 -0.0898,-0.14843 -0.12891,-0.23046 -0.13281,-0.25782 -0.23828,-0.32422 -0.33203,-0.20704 -0.0625,0.0703 -0.0664,1.16407 -0.008,1.60938 0.0234,0.17969 0.0625,0.55078 0.0898,0.82422 0.0274,0.26953 0.0586,0.53906 0.0703,0.59375 0.0586,0.30469 0.10547,1.47656 0.0781,1.91015 -0.0742,1.07032 -0.52344,2.30079 -1.30078,3.5586 -0.043,0.0703 -0.13281,0.21875 -0.19922,0.32812 -0.0625,0.10938 -0.14844,0.25 -0.1875,0.31641 -0.13672,0.22266 -0.37109,0.59375 -0.41797,0.67187 -0.58984,0.9336 -1.20312,2.19922 -1.30078,2.6836 -0.0156,0.0664 -0.043,0.17578 -0.0664,0.25 -0.043,0.125 -0.0781,0.32031 -0.15235,0.85547 -0.0156,0.125 -0.0469,0.55468 -0.0625,0.95312 -0.10156,2.32031 -0.17969,2.91406 -0.49219,3.83594 -0.44921,1.32031 -1.14062,2.12109 -2.17187,2.51172 -1.03516,0.39844 -2.39844,0.24219 -2.33203,-0.26172 0.0351,-0.25781 0.30859,-0.69922 0.77344,-1.25781 0.0547,-0.0625 0.17578,-0.21094 0.27343,-0.32813 0.87891,-1.05078 1.17188,-1.58203 1.23438,-2.26172 0.10937,-1.10937 -0.91406,-2.0625 -2.45703,-2.28515 -0.13672,-0.0195 -0.32813,-0.0547 -0.42969,-0.0742 -0.10547,-0.0195 -0.97266,-0.043 -2.08984,-0.0586 -2.24219,-0.0273 -2.53516,-0.0586 -3.3125,-0.32031 -0.39454,-0.13281 -0.80079,-0.46094 -0.8711,-0.69922 -0.0156,-0.0469 -0.043,-0.11328 -0.0664,-0.14843 -0.10938,-0.17969 -0.12891,-0.47657 -0.1211,-1.7461 0.0117,-1.70703 -0.0742,-2.23437 -0.46875,-2.89844 -0.32812,-0.55078 -1.00781,-1.11328 -1.60156,-1.32031 -0.082,-0.0312 -0.17578,-0.0703 -0.21094,-0.0859 -0.36328,-0.19531 -1.8789,-0.49218 -2.98437,-0.58984 -0.22657,-0.0195 -0.55469,-0.0508 -0.72657,-0.0664 -1.13281,-0.10546 -5.78125,-0.10546 -8.21875,0.004 -0.36328,0.0156 -1.11718,0.043 -1.67968,0.0625 -0.5625,0.0195 -1.34766,0.0508 -1.7461,0.0664 -0.39843,0.0195 -1.19922,0.0469 -1.77734,0.0664 -0.58203,0.0195 -1.58203,0.0547 -2.22656,0.082 -0.64063,0.0274 -1.5,0.0547 -1.91016,0.0664 -0.40625,0.008 -1.55469,0.0391 -2.55078,0.0703 -3.78125,0.10938 -7.625,-0.008 -9.88281,-0.30078 -0.46485,-0.0586 -0.47266,-0.0586 -0.85938,-0.1289 -0.42187,-0.0742 -1.39062,-0.30079 -1.51562,-0.34766 -0.0352,-0.0156 -0.21094,-0.0742 -0.39453,-0.13281 -0.17969,-0.0547 -0.35938,-0.11719 -0.39454,-0.13282 -0.64453,-0.27343 -0.91015,-0.40625 -1.48046,-0.73828 -0.0664,-0.0391 -0.20313,-0.125 -0.48438,-0.32422 -0.20703,-0.14453 -0.76172,-0.59375 -0.98437,-0.79687 -0.35547,-0.32813 -0.64063,-0.59375 -0.69141,-0.64453 -0.0273,-0.0274 -0.23438,-0.21485 -0.46094,-0.41406 -0.35937,-0.31641 -0.55078,-0.47266 -0.89062,-0.73438 -0.0742,-0.0547 -0.28907,-0.19531 -0.54297,-0.35937 -1.67188,-1.05079 -3.46485,-0.70704 -4.19922,0.80859 -0.0781,0.16016 -0.15234,0.3125 -0.16797,0.34375 -0.0312,0.0625 -0.18359,0.46875 -0.30469,0.80078 -0.14453,0.39453 -0.25781,0.68359 -0.38672,0.96484 -0.0352,0.0742 -0.0625,0.14454 -0.0625,0.15235 0,0.0195 -0.27343,0.49219 -0.29687,0.51562 -0.008,0.008 -0.0625,0.0742 -0.11328,0.14453 -0.33985,0.45704 -0.59766,0.59375 -1.10547,0.59375 -1.00781,0 -1.64844,-0.75 -1.64844,-1.9375 0,-0.75781 0.33985,-1.39843 1.04297,-1.97265 0.25,-0.19922 0.55859,-0.42188 0.59375,-0.42188 0.0117,0 0.0664,-0.0351 0.125,-0.0742 0.0547,-0.043 0.11328,-0.0859 0.13281,-0.0937 0.0195,-0.008 0.20703,-0.10937 0.42188,-0.22656 0.21484,-0.11719 0.42969,-0.23437 0.47656,-0.25781 1.63672,-0.83984 1.55078,-1.83594 -0.27344,-3.21875 -0.16015,-0.12109 -0.30078,-0.23047 -0.3125,-0.24219 -0.008,-0.0117 -0.16015,-0.13672 -0.33593,-0.27734 -0.39063,-0.3086 -0.98438,-0.90625 -1.23829,-1.24219 -0.10156,-0.13672 -0.19921,-0.25 -0.21093,-0.25781 -0.0156,-0.004 -0.0273,-0.0234 -0.0273,-0.043 0,-0.0156 -0.0586,-0.12109 -0.13672,-0.23438 -1.44921,-2.13281 -1.61328,-6.6914 -0.41796,-11.5039 l 0.0977,-0.39063 0.20703,-0.21875 c 0.32813,-0.33984 0.85938,-0.94531 1.07422,-1.22656 0.0273,-0.0352 0.0937,-0.12109 0.14844,-0.1875 0.14453,-0.17969 0.25781,-0.32422 0.42578,-0.54687 0.082,-0.10938 0.16016,-0.21094 0.17578,-0.23047 0.125,-0.14844 1.16016,-1.64844 1.16016,-1.67969 0,-0.008 0.0703,-0.11328 0.15234,-0.23828 0.082,-0.1211 0.21094,-0.32813 0.28125,-0.45313 0.13672,-0.24218 0.15235,-0.26953 0.29688,-0.51172 0.10156,-0.16796 0.63281,-1.22265 0.75,-1.48828 0.043,-0.0937 0.0898,-0.19922 0.10547,-0.23047 0.0117,-0.0273 0.0703,-0.17578 0.1289,-0.32812 0.0586,-0.15234 0.125,-0.3125 0.14844,-0.35938 0.0234,-0.043 0.0508,-0.13281 0.0664,-0.19531 0.0117,-0.0625 0.0352,-0.13281 0.0508,-0.14844 0.0117,-0.0195 0.0469,-0.11718 0.0742,-0.21484 0.0273,-0.10156 0.082,-0.29297 0.12109,-0.42969 0.0391,-0.13281 0.0937,-0.37109 0.12109,-0.52734 0.0234,-0.15234 0.0586,-0.33984 0.0781,-0.41797 0.0859,-0.37891 0.004,-1.03906 -0.16016,-1.28906 -0.54687,-0.84375 -1.49609,-0.60547 -2.42969,0.60547 -0.23437,0.30078 -0.61718,0.86718 -0.76953,1.14453 -0.44922,0.79297 -0.98828,1.84375 -1.25,2.42969 -0.0352,0.082 -0.10937,0.24609 -0.16406,0.36328 -0.21875,0.48437 -0.30078,0.6875 -0.30078,0.73047 0,0.0234 -0.0156,0.0586 -0.0312,0.0781 -0.0156,0.0156 -0.0781,0.15625 -0.13672,0.30859 -0.0547,0.15625 -0.125,0.32422 -0.14844,0.37891 -0.0234,0.0547 -0.0742,0.18359 -0.10937,0.28125 -0.0352,0.10156 -0.10547,0.28125 -0.14844,0.40234 -0.0469,0.1211 -0.0859,0.23829 -0.0859,0.26563 0,0.0234 -0.008,0.0547 -0.0195,0.0664 -0.0625,0.0625 -0.82422,2.40625 -1.0664,3.26953 -0.0742,0.26172 -0.14063,0.33593 -0.66407,0.75 -2.50781,1.97656 -4.27343,1.76953 -4.70312,-0.55469 -0.19922,-1.0625 0.0664,-2.70313 0.64062,-3.95313 0.0977,-0.21093 0.37891,-0.79296 0.41016,-0.83984 0.0156,-0.0273 0.12109,-0.21094 0.23437,-0.41016 0.33985,-0.59375 1.22266,-1.83984 1.47657,-2.09375 0.0117,-0.008 0.0781,-0.0898 0.14843,-0.17968 0.67188,-0.84766 1.77735,-1.9375 2.85157,-2.81641 0.20703,-0.17187 0.38672,-0.32031 0.39453,-0.32812 0.0312,-0.0352 1.17187,-0.89844 1.30469,-0.99219 0.0391,-0.0273 0.26171,-0.1836 0.49609,-0.35156 0.65234,-0.46485 1.15234,-0.80079 1.19141,-0.80079 0.008,0 0.043,-0.0195 0.0703,-0.043 0.0273,-0.0273 0.17187,-0.10938 0.3164,-0.1836 0.95313,-0.5 0.54688,-1.62109 -0.42968,-1.17578 -0.10938,0.0508 -0.24219,0.11328 -0.29688,0.13672 -0.0898,0.0391 -0.26172,0.10156 -0.57422,0.21094 -0.46093,0.16015 -1.70703,0.18359 -1.89453,0.0352 -0.0195,-0.0117 -0.0937,-0.043 -0.16406,-0.0664 -0.3125,-0.10157 -0.83594,-0.72266 -1.15625,-1.375 -0.10547,-0.21485 -0.20313,-0.41016 -0.21484,-0.44141 -0.0625,-0.12109 -0.30469,-0.84375 -0.33985,-1 -0.0117,-0.0547 -0.043,-0.17187 -0.0703,-0.26172 -0.17969,-0.65234 -0.35938,-1.6289 -0.52344,-2.82031 -0.0273,-0.20703 -0.0742,-0.53125 -0.10156,-0.72266 -0.0547,-0.34765 -0.0664,-0.44531 -0.16406,-1.36718 -0.0273,-0.27344 -0.0664,-0.58204 -0.0859,-0.6875 -0.0195,-0.10547 -0.0547,-0.42579 -0.0781,-0.71094 -0.0234,-0.28906 -0.0508,-0.53516 -0.0625,-0.55078 -0.008,-0.0156 -0.0312,-0.28516 -0.0508,-0.60547 -0.0234,-0.31641 -0.0547,-0.67188 -0.0742,-0.78906 -0.17578,-1.125 -0.18359,-4.60938 -0.0117,-5.61719 0.0234,-0.14453 0.0547,-0.35156 0.0664,-0.46094 0.0117,-0.10937 0.0352,-0.25 0.0508,-0.3125 0.0156,-0.0625 0.0664,-0.27734 0.11328,-0.47656 0.3125,-1.32422 0.99219,-2.26563 1.75,-2.42188 0.38672,-0.082 0.55469,0.0508 0.98047,0.77344 0.0859,0.14453 0.16797,0.28516 0.1836,0.3125 0.17578,0.28906 0.28906,0.48047 0.33203,0.55469 0.0273,0.0469 0.0977,0.16015 0.15625,0.24609 0.0586,0.0859 0.10547,0.16406 0.10547,0.17578 0,0.0117 0.20703,0.32032 0.50781,0.75391 0.375,0.53516 1.63672,2.125 1.94141,2.4375 0.0195,0.0234 0.0898,0.10547 0.15234,0.18359 0.0664,0.0781 0.17578,0.21094 0.25,0.29297 0.11328,0.125 0.88672,1.04688 1.03516,1.23047 0.0273,0.0352 0.14843,0.17578 0.26562,0.31641 0.11719,0.13672 0.26563,0.3164 0.32813,0.39453 0.0625,0.0781 0.22656,0.28125 0.36328,0.44531 0.13672,0.16797 0.27734,0.34375 0.3125,0.39453 0.0352,0.0508 0.14843,0.19922 0.25,0.32813 0.15625,0.20312 0.66015,0.89062 0.82812,1.14062 0.23828,0.34375 0.51953,0.76953 0.51953,0.78125 0,0.008 0.043,0.0781 0.0937,0.15235 0.1875,0.26953 0.33594,0.50781 0.33594,0.53906 0,0.0195 0.0273,0.0703 0.0586,0.11328 0.11719,0.14844 0.61329,1.11328 0.78125,1.51172 0.0469,0.11719 0.10938,0.25781 0.13282,0.3125 0.0625,0.14453 0.21093,0.53515 0.21093,0.55859 0,0.0156 0.0195,0.0703 0.0469,0.12891 0.0234,0.0547 0.0586,0.16015 0.0781,0.23437 0.0195,0.0742 0.0664,0.24219 0.10547,0.37891 0.34375,1.1875 0.48047,3.10937 0.33594,4.64453 -0.0469,0.46484 -0.0625,0.71875 -0.0859,1.26953 -0.0117,0.23438 -0.0352,0.64453 -0.0547,0.90625 -0.0391,0.53516 -0.0508,2.2461 -0.0156,2.67188 0.11328,1.41797 0.13672,1.61328 0.28516,2.46484 0.0742,0.41016 0.19922,0.99609 0.27734,1.28516 0.14453,0.53125 0.34766,1.1914 0.37891,1.23828 0.0117,0.0156 0.0352,0.0742 0.0469,0.1289 0.0195,0.0859 0.12891,0.39063 0.21485,0.59375 0.0937,0.23047 0.21875,0.51563 0.27343,0.64454 0.0742,0.17187 0.48047,0.98437 0.57422,1.15234 0.28516,0.50781 0.3125,0.55078 0.89453,1.42578 0.44922,0.66797 1.6211,1.97266 2.41016,2.67578 0.39844,0.35547 1.03125,0.8711 1.23437,1.00391 0.0391,0.0273 0.1836,0.125 0.31641,0.22265 0.33984,0.23829 0.50781,0.35157 0.75391,0.50782 0.11718,0.0742 0.27343,0.17578 0.34765,0.22656 0.0703,0.0469 0.14453,0.0937 0.16407,0.10156 0.0195,0.008 0.14843,0.0781 0.29296,0.16016 0.14063,0.082 0.3125,0.17969 0.37891,0.21484 0.0664,0.0391 0.17578,0.10156 0.24219,0.14063 0.15234,0.0859 0.89453,0.46093 1.27734,0.64062 0.15235,0.0742 0.30078,0.14453 0.32813,0.16016 0.0273,0.0156 0.0742,0.0391 0.10156,0.0508 0.0234,0.008 0.20312,0.0859 0.39453,0.16797 0.1875,0.082 0.41016,0.17969 0.49219,0.21484 0.082,0.0312 0.19531,0.082 0.25,0.10547 0.0508,0.0234 0.19922,0.0859 0.32812,0.13281 0.125,0.0508 0.27344,0.10938 0.32813,0.13282 0.0547,0.0195 0.17969,0.0703 0.28125,0.10546 0.0976,0.0391 0.28125,0.10938 0.40234,0.15625 0.11719,0.0469 0.23828,0.082 0.26172,0.082 0.0273,0 0.0625,0.0156 0.0781,0.0273 0.0156,0.0156 0.17968,0.0781 0.35937,0.13672 0.18359,0.0586 0.35938,0.11719 0.39844,0.13281 0.0742,0.0312 0.72656,0.25 1.13672,0.375 0.79297,0.25 1.09765,0.33984 1.61328,0.48438 0.26172,0.0742 0.55859,0.15625 0.65625,0.1875 0.10156,0.0273 0.22656,0.0625 0.28125,0.0742 0.0547,0.0156 0.36719,0.0977 0.6914,0.17969 0.32813,0.0859 0.65235,0.16797 0.72657,0.1836 0.0703,0.0195 0.21093,0.0547 0.3125,0.082 0.0976,0.0234 0.46093,0.11328 0.80859,0.19531 0.34375,0.0859 0.67578,0.16406 0.73828,0.18359 0.0625,0.0156 0.27344,0.0664 0.46094,0.10938 0.19141,0.043 0.44922,0.10547 0.57812,0.13672 0.27735,0.0664 0.51172,0.11718 0.96875,0.21093 0.1875,0.0391 0.35157,0.0781 0.36719,0.0859 0.0117,0.008 0.13281,0.0391 0.26563,0.0664 0.45312,0.0937 0.83593,0.17187 1.21484,0.25781 0.20703,0.043 0.5625,0.12109 0.78906,0.16797 0.22657,0.0469 0.50782,0.10547 0.62891,0.13281 0.32031,0.0703 2.19922,0.44922 2.38672,0.47656 0.0898,0.0156 0.28515,0.0508 0.42969,0.0781 0.45703,0.0937 0.91015,0.18359 1.30078,0.25391 0.20703,0.0391 0.48047,0.0898 0.60937,0.11718 0.125,0.0273 0.3125,0.0625 0.41016,0.0781 0.10156,0.0156 0.35156,0.0586 0.5625,0.0977 0.70703,0.13672 1.0664,0.19922 1.38281,0.25 0.17188,0.0273 0.41016,0.0703 0.52734,0.0977 0.11719,0.0273 0.29297,0.0586 0.39454,0.0664 0.0976,0.0117 0.23437,0.0352 0.29687,0.0508 0.0625,0.0156 0.26172,0.0508 0.44531,0.0781 0.17969,0.0273 0.50782,0.0781 0.72266,0.11719 0.21875,0.0352 0.5,0.082 0.625,0.10156 0.12891,0.0195 0.41016,0.0625 0.62891,0.0977 1.51562,0.23828 4.09375,0.59375 5.30078,0.72656 0.16406,0.0156 0.42578,0.0469 0.57812,0.0664 0.15235,0.0156 0.42188,0.0469 0.59375,0.0625 0.17188,0.0156 0.45313,0.0469 0.625,0.0664 0.17188,0.0195 0.5,0.0508 0.72656,0.0664 0.22657,0.0195 0.55079,0.0469 0.72266,0.0664 0.17188,0.0156 0.44531,0.0391 0.60938,0.0508 0.16406,0.008 0.44531,0.0312 0.625,0.0469 0.18359,0.0156 0.61328,0.0469 0.95703,0.0664 0.34375,0.0195 0.82422,0.0469 1.07031,0.0664 0.70312,0.0508 1.84766,0.10156 4.51562,0.19921 1.09375,0.0391 6.69141,0.0391 7.8711,-0.004 0.44531,-0.0156 1.48047,-0.043 2.30469,-0.0625 0.82421,-0.0195 1.76171,-0.0508 2.07812,-0.0664 0.31641,-0.0156 0.96875,-0.0469 1.44922,-0.0664 0.48047,-0.0195 1.10156,-0.0508 1.38281,-0.0664 0.28125,-0.0195 0.88281,-0.0586 1.33594,-0.082 0.44922,-0.0273 1.02344,-0.0664 1.26562,-0.082 0.2461,-0.0195 0.65235,-0.0508 0.90625,-0.0664 0.25391,-0.0195 0.625,-0.0469 0.82422,-0.0664 0.19922,-0.0156 0.53907,-0.0469 0.75782,-0.0625 1.04687,-0.082 2.91796,-0.28515 4.19921,-0.44921 0.91797,-0.1211 1.83204,-0.2461 2.11329,-0.29688 0.17187,-0.0273 0.48828,-0.0781 0.70312,-0.11719 0.52734,-0.0859 1.26172,-0.21875 1.55078,-0.27734 0.76172,-0.15625 0.90235,-0.18359 1.03516,-0.21875 0.082,-0.0195 0.26953,-0.0625 0.41406,-0.0937 0.14453,-0.0312 0.38281,-0.0898 0.52734,-0.125 0.14454,-0.0352 0.38282,-0.0977 0.52735,-0.13281 0.14453,-0.0352 0.3789,-0.0977 0.52734,-0.13672 0.14453,-0.0352 0.35156,-0.0898 0.45703,-0.11719 0.10938,-0.0273 0.21094,-0.0625 0.23047,-0.0781 0.0195,-0.0156 0.0937,-0.0391 0.16797,-0.0508 0.53516,-0.0977 3.85547,-1.30859 4.46875,-1.63281 0.0664,-0.0352 0.13672,-0.0664 0.15625,-0.0664 0.0156,0 0.16797,-0.0625 0.33984,-0.14063 0.16797,-0.082 0.39454,-0.1875 0.50391,-0.23437 0.37109,-0.16797 1.31641,-0.62891 1.88281,-0.91407 0.96485,-0.49218 1.28516,-0.66406 2.21875,-1.19922 0.89844,-0.51171 0.94532,-0.53906 1.30078,-0.71093 1.04297,-0.50391 1.19922,-0.61328 1.16407,-0.8086 -0.0156,-0.082 -0.17188,-0.1289 -0.26563,-0.0859 -0.043,0.0234 -0.17969,0.0469 -0.30469,0.0547 -0.20703,0.0117 -0.47265,0.0742 -0.66015,0.15625 -0.0352,0.0156 -0.16797,0.0664 -0.29688,0.11328 -0.48047,0.1836 -0.63281,0.25782 -1.75,0.8086 -0.51172,0.2539 -0.93359,0.45703 -0.94531,0.45703 -0.0117,0 -0.25391,0.11328 -0.53906,0.25 -0.58985,0.28516 -0.70703,0.33594 -0.98047,0.46094 -0.10938,0.0508 -0.30859,0.14062 -0.44531,0.20312 -0.13672,0.0625 -0.30078,0.13672 -0.36328,0.16406 -0.0625,0.0273 -0.1875,0.0859 -0.28125,0.125 -0.0899,0.043 -0.3125,0.13672 -0.49219,0.21485 -0.1836,0.0781 -0.375,0.16015 -0.42969,0.18359 -0.32031,0.14453 -1.25391,0.51953 -1.62891,0.65625 -0.13671,0.0508 -0.28515,0.10547 -0.33203,0.125 -0.3789,0.15625 -1.87109,0.64844 -2.69922,0.89063 -0.90234,0.26172 -2.32031,0.60937 -2.96484,0.73047 -0.13672,0.0234 -0.30859,0.0586 -0.37891,0.0781 -0.33593,0.0859 -1.65625,0.31641 -2.85156,0.49609 -0.24219,0.0352 -0.59765,0.0898 -0.78906,0.11719 -0.19141,0.0312 -0.45703,0.0664 -0.59375,0.082 -0.75,0.0859 -1.17578,0.13672 -1.51563,0.1836 -0.20703,0.0234 -0.49609,0.0547 -0.64062,0.0664 -0.14453,0.0117 -0.34766,0.0352 -0.44531,0.0508 -0.10157,0.0156 -0.45313,0.0508 -0.78516,0.0781 -0.32812,0.0273 -0.60937,0.0547 -0.625,0.0625 -0.0117,0.008 -0.28906,0.0312 -0.61719,0.0508 -0.32422,0.0195 -0.70312,0.0547 -0.83984,0.0703 -0.13672,0.0195 -0.57813,0.0547 -0.98828,0.082 -0.40625,0.0273 -0.92578,0.0625 -1.15235,0.082 -0.22656,0.0156 -0.6875,0.0469 -1.01953,0.0664 -0.33593,0.0156 -0.84765,0.0469 -1.13672,0.0625 -0.29296,0.0195 -0.89062,0.0508 -1.33593,0.0664 -0.44532,0.0195 -1.10938,0.0469 -1.48047,0.0664 -0.65625,0.0312 -2.33203,0.0781 -4.87891,0.13282 -1.59375,0.0352 -4.78906,0.0352 -6.01172,0 -2.11718,-0.0586 -3.3164,-0.10157 -3.76953,-0.13282 -0.26562,-0.0156 -0.79687,-0.0469 -1.1875,-0.0625 -0.39062,-0.0195 -0.98047,-0.0547 -1.3164,-0.082 -0.33594,-0.0273 -0.75782,-0.0586 -0.94141,-0.0703 -0.17969,-0.008 -0.55078,-0.0391 -0.82031,-0.0625 -0.27344,-0.0273 -0.60547,-0.0547 -0.74219,-0.0664 -0.30469,-0.0234 -1.08594,-0.10156 -1.69922,-0.17187 -0.25,-0.0273 -0.59766,-0.0625 -0.76172,-0.0781 -0.16797,-0.0156 -0.48047,-0.0508 -0.69531,-0.0781 -0.21094,-0.0273 -0.63672,-0.0781 -0.94531,-0.11719 -0.3086,-0.0352 -0.65625,-0.082 -0.77344,-0.0977 -0.12109,-0.0195 -0.33594,-0.0469 -0.48047,-0.0664 -0.65625,-0.0859 -1.26562,-0.17188 -1.44922,-0.20313 -0.10937,-0.0156 -0.35156,-0.0547 -0.54297,-0.0781 -0.1914,-0.0273 -0.4414,-0.0664 -0.55859,-0.0859 -0.11719,-0.0156 -0.3125,-0.0469 -0.42969,-0.0625 -0.11719,-0.0156 -0.30859,-0.0469 -0.42969,-0.0664 -0.11718,-0.0195 -0.30078,-0.0508 -0.41015,-0.0664 -0.10938,-0.0156 -0.38281,-0.0586 -0.60938,-0.0977 -0.22656,-0.0352 -0.59375,-0.0977 -0.8164,-0.13281 -0.22266,-0.0352 -0.41797,-0.0703 -0.4336,-0.0781 -0.0156,-0.0117 -0.17187,-0.0391 -0.35156,-0.0664 -0.32422,-0.0508 -0.76562,-0.125 -1.44531,-0.25 -0.19922,-0.0352 -0.4961,-0.0898 -0.66016,-0.11719 -0.16015,-0.0273 -0.39844,-0.0703 -0.52734,-0.0937 -0.27735,-0.0586 -0.78906,-0.15625 -1.30078,-0.25 -0.40235,-0.0742 -0.875,-0.16406 -1.38282,-0.26562 -0.17187,-0.0352 -0.80859,-0.16016 -1.41796,-0.28125 -0.60547,-0.1211 -1.375,-0.27735 -1.71094,-0.34375 -0.33594,-0.0703 -0.72266,-0.14844 -0.85547,-0.17578 -0.13672,-0.0312 -0.34375,-0.0742 -0.46484,-0.10547 -0.11719,-0.0273 -0.28516,-0.0625 -0.375,-0.0781 -0.0937,-0.0195 -0.29297,-0.0586 -0.44532,-0.0977 -0.15625,-0.0352 -0.41797,-0.0937 -0.58593,-0.13282 -0.41407,-0.0937 -0.85938,-0.19531 -1.17969,-0.26953 -0.69531,-0.16015 -0.84375,-0.19531 -1.12891,-0.25781 -0.16797,-0.0352 -0.32031,-0.0742 -0.33594,-0.0859 -0.0156,-0.008 -0.1289,-0.0352 -0.25,-0.0625 -0.36328,-0.0781 -1.80468,-0.4375 -2.5,-0.625 -0.10937,-0.0312 -0.30078,-0.082 -0.42968,-0.11719 -0.4336,-0.11718 -1.23828,-0.35156 -1.64453,-0.48046 -0.0742,-0.0234 -0.26563,-0.082 -0.42969,-0.12891 -0.33203,-0.10156 -1.05078,-0.33594 -1.15235,-0.37891 -0.0351,-0.0156 -0.17187,-0.0664 -0.29687,-0.10937 -0.69922,-0.2461 -1.09766,-0.39453 -1.17578,-0.4375 -0.0469,-0.0234 -0.10547,-0.0469 -0.12891,-0.0469 -0.0273,0 -0.10547,-0.0312 -0.17969,-0.0664 -0.0703,-0.0352 -0.14453,-0.0625 -0.16015,-0.0625 -0.0156,-0.004 -0.0899,-0.0312 -0.16406,-0.0664 -0.0742,-0.0312 -0.26954,-0.11328 -0.42969,-0.18359 -0.16406,-0.0664 -0.35938,-0.14844 -0.42969,-0.17969 -0.0742,-0.0352 -0.21484,-0.0977 -0.3125,-0.14453 -0.65234,-0.29297 -0.98437,-0.45313 -1.58203,-0.78125 -0.77344,-0.42188 -0.92969,-0.51172 -1.35156,-0.78906 -0.13672,-0.0898 -0.26953,-0.17579 -0.29688,-0.1875 -0.043,-0.0234 -0.18359,-0.1211 -0.85156,-0.59766 -0.16406,-0.11719 -0.59375,-0.46094 -0.64453,-0.51563 -0.0195,-0.0195 -0.14453,-0.125 -0.28125,-0.23046 -0.36719,-0.29688 -1.32422,-1.26563 -1.69531,-1.72266 -0.33594,-0.41016 -0.78907,-1.00781 -0.82813,-1.08984 -0.0156,-0.0234 -0.10156,-0.15625 -0.19531,-0.29688 -0.48047,-0.71094 -1.03125,-1.80859 -1.39063,-2.76953 -0.17187,-0.46484 -0.44922,-1.34375 -0.5,-1.58594 -0.0156,-0.0781 -0.0547,-0.24219 -0.082,-0.35937 -0.10937,-0.45313 -0.125,-0.51953 -0.1875,-0.89063 -0.30859,-1.8125 -0.34765,-3.17578 -0.17578,-5.84765 0.14844,-2.26563 0.16797,-3.07422 0.0937,-4.10157 l -0.0195,-0.27734 0.17969,0.26562 c 0.17578,0.26563 0.23047,0.33985 0.60547,0.84766 0.73437,0.98438 2.12109,2.56641 3.15625,3.59766 0.64062,0.63672 1.46093,1.39062 1.88281,1.73047 0.0351,0.0273 0.17187,0.14453 0.30859,0.26171 0.2461,0.21485 0.82031,0.69532 1.11328,0.9336 0.87891,0.71484 2.48047,2.24219 3.03907,2.89844 1.07031,1.26171 1.41015,1.91796 1.375,2.67187 -0.0508,1.21484 -1.75782,1.32422 -3.39454,0.21484 -0.30468,-0.21093 -0.34765,-0.24218 -0.54687,-0.41015 -0.0664,-0.0586 -0.16406,-0.13672 -0.21875,-0.17578 -0.15234,-0.11719 -0.40625,-0.33203 -0.64063,-0.55078 -0.12109,-0.10547 -0.28515,-0.25391 -0.36328,-0.32422 -0.1875,-0.16016 -0.64453,-0.57422 -0.88672,-0.80469 -0.10156,-0.0937 -0.33203,-0.28125 -0.51562,-0.41016 -0.39844,-0.28515 -0.75781,-0.5664 -0.87891,-0.6875 -0.27734,-0.27343 -0.45703,-0.0586 -0.23828,0.28125 0.0625,0.10157 0.11328,0.19141 0.11328,0.19922 0,0.0117 0.0742,0.17969 0.16797,0.375 0.0937,0.19141 0.20703,0.4336 0.25391,0.53125 0.15625,0.33594 0.79687,1.25 1.33203,1.89844 1.42578,1.73437 3.19531,2.62109 4.91406,2.45703 0.22656,-0.0195 0.46875,-0.0586 0.53906,-0.0859 0.0664,-0.0234 0.16797,-0.0547 0.22266,-0.0664 1.25,-0.27735 2.0625,-1.90625 1.65234,-3.3125 -0.11328,-0.39063 -0.35546,-0.9375 -0.55859,-1.26953 -0.375,-0.60547 -0.80469,-1.1211 -1.58984,-1.91016 -0.75,-0.75781 -1.01953,-1.00781 -1.55078,-1.44922 -0.0859,-0.0703 -0.21875,-0.18359 -0.29297,-0.24609 -0.0742,-0.0625 -0.19141,-0.16016 -0.26172,-0.21485 -0.0703,-0.0547 -0.28125,-0.22265 -0.47266,-0.375 -0.1914,-0.15234 -0.58594,-0.45312 -0.875,-0.67578 -0.52734,-0.39453 -0.62109,-0.46875 -0.6914,-0.53125 -0.0195,-0.0156 -0.0977,-0.0742 -0.16797,-0.1289 -0.1836,-0.13282 -1.17578,-0.9336 -1.41797,-1.14063 -0.79297,-0.67578 -2.88672,-2.76953 -3.65625,-3.65234 -0.0859,-0.10157 -0.25781,-0.28907 -0.375,-0.41407 -0.42188,-0.44921 -0.74219,-0.83593 -1.29688,-1.55859 -0.0586,-0.0781 -0.13281,-0.16797 -0.16406,-0.20312 -0.0547,-0.0586 -0.11328,-0.23047 -0.20703,-0.57813 -0.0508,-0.17969 -0.12891,-0.42969 -0.19922,-0.60937 -0.0234,-0.0625 -0.0742,-0.20313 -0.11328,-0.3125 -0.24609,-0.66407 -0.70703,-1.62891 -1.06641,-2.23438 -0.082,-0.14062 -0.15234,-0.26562 -0.15234,-0.27344 0,-0.0117 -0.27344,-0.4414 -0.55859,-0.86718 -0.0625,-0.10157 -0.1211,-0.19532 -0.12891,-0.21485 -0.008,-0.0195 -0.0391,-0.0625 -0.0703,-0.0977 -0.0312,-0.0391 -0.15625,-0.21094 -0.27735,-0.39063 -0.12109,-0.17969 -0.23437,-0.33984 -0.2539,-0.36328 -0.0391,-0.0508 -0.28907,-0.37891 -0.375,-0.49609 -0.17578,-0.2461 -1.03125,-1.31641 -1.23828,-1.55079 -0.0625,-0.0742 -0.17188,-0.20703 -0.2461,-0.29687 -0.16406,-0.20703 -0.21094,-0.26172 -0.47656,-0.57422 -0.11719,-0.13672 -0.22656,-0.26953 -0.24609,-0.29297 -0.0195,-0.0234 -0.0703,-0.0859 -0.11329,-0.13281 -0.10156,-0.10938 -0.35546,-0.40625 -0.59375,-0.69531 -0.25,-0.30469 -0.83593,-1.00391 -0.85937,-1.02344 -0.0117,-0.008 -0.11719,-0.14063 -0.24219,-0.29688 -0.12109,-0.15234 -0.24219,-0.30468 -0.26953,-0.33593 -0.0273,-0.0352 -0.13281,-0.17578 -0.23437,-0.31641 -0.10157,-0.13672 -0.25,-0.33594 -0.32813,-0.4375 -0.0781,-0.10547 -0.14453,-0.19922 -0.14453,-0.21094 0,-0.0117 -0.0312,-0.0625 -0.0742,-0.11328 -0.0859,-0.10937 -0.10937,-0.14062 -0.30859,-0.46484 -0.082,-0.13281 -0.17578,-0.28125 -0.21094,-0.32813 -0.0312,-0.0469 -0.0937,-0.16015 -0.14453,-0.24609 -0.0469,-0.0898 -0.11719,-0.21875 -0.15625,-0.28125 -0.0391,-0.0625 -0.12891,-0.22656 -0.19922,-0.35938 -0.0742,-0.13671 -0.17578,-0.3125 -0.22656,-0.39062 -0.0508,-0.0781 -0.0937,-0.15234 -0.0937,-0.16406 0,-0.0312 -0.33594,-0.45703 -0.42188,-0.53516 -0.125,-0.11719 -0.45703,-0.32031 -0.58594,-0.36328 -0.0703,-0.0195 -0.16406,-0.0508 -0.20703,-0.0703 -0.125,-0.0469 -0.57031,-0.0234 -0.8125,0.043 m 5.96485,26.39062 c -0.0156,0.0977 -0.0391,0.23438 -0.0586,0.30469 -0.0156,0.0703 -0.043,0.19531 -0.0586,0.28125 -0.0312,0.17969 -0.23438,0.86719 -0.33203,1.12109 -0.14844,0.38281 -0.17578,0.44922 -0.23438,0.58203 -0.0312,0.0742 -0.0586,0.14844 -0.0586,0.15625 0,0.0117 -0.13281,0.28907 -0.29688,0.6211 -0.28906,0.58593 -0.4375,0.86328 -0.71093,1.32031 -0.0703,0.125 -0.16016,0.27734 -0.19532,0.33594 -0.1289,0.21875 -0.52343,0.82422 -0.625,0.95312 -0.0547,0.0703 -0.15234,0.20703 -0.21484,0.30078 -0.13672,0.19922 -0.46484,0.65235 -0.55859,0.76953 -0.0469,0.0586 -0.0664,0.0664 -0.0664,0.0312 0,-0.0273 0.0117,-0.0664 0.0273,-0.082 0.0156,-0.0156 0.0742,-0.17968 0.13282,-0.35937 0.0586,-0.1836 0.11718,-0.35938 0.13281,-0.39844 0.0156,-0.0352 0.10547,-0.27344 0.19922,-0.52344 0.0937,-0.2539 0.1914,-0.50781 0.21484,-0.5625 0.0234,-0.0547 0.15625,-0.37109 0.29688,-0.70703 0.36328,-0.86328 0.78515,-1.7539 1.12109,-2.35547 0.082,-0.14453 0.16016,-0.29297 0.17969,-0.32812 0.0195,-0.0391 0.0547,-0.0977 0.0742,-0.13281 0.0234,-0.0391 0.11718,-0.19141 0.20703,-0.33985 0.27344,-0.45312 0.28906,-0.48047 0.47265,-0.73437 0.17579,-0.24219 0.33204,-0.42578 0.35938,-0.42578 0.008,0 0.004,0.0781 -0.008,0.17187 m 69.20312,30.89844 c -0.15625,0.15625 0.16797,0.72656 0.88672,1.5625 0.16797,0.19922 0.31641,0.36719 0.32422,0.375 0.0117,0.0117 0.14453,0.16015 0.29687,0.33203 0.15625,0.17187 0.5,0.53906 0.77344,0.82031 1.4375,1.48828 1.57813,1.63672 1.75,1.84766 0.0508,0.0625 0.11719,0.13672 0.14453,0.16406 0.0781,0.0781 0.46094,0.55078 0.46094,0.57031 0,0.0117 0.0625,0.11328 0.14063,0.22657 0.86328,1.28125 0.87109,2.41406 0.0312,4.04687 -0.0977,0.1875 -0.19922,0.36719 -0.22657,0.39844 -0.0234,0.0273 -0.043,0.0625 -0.043,0.0742 0,0.0312 -0.32421,0.51953 -0.45312,0.6875 -0.0508,0.0664 -0.12109,0.16015 -0.15625,0.21093 -0.73047,1.03125 -2.10938,1.98829 -2.87109,1.98829 -0.67579,0 -0.92969,-0.90625 -0.58985,-2.09375 0.0274,-0.0899 0.11328,-0.39454 0.19531,-0.67579 0.082,-0.27734 0.17969,-0.64062 0.21875,-0.80468 0.16016,-0.62891 0.0781,-1.60157 -0.15234,-1.86328 -0.0273,-0.0312 -0.0469,-0.0625 -0.0469,-0.0781 0,-0.31641 -1.04297,-1.10547 -2.02735,-1.53516 -0.19531,-0.082 -0.69922,-0.19531 -0.89453,-0.19531 -0.0742,0 -0.17578,-0.0234 -0.23047,-0.0508 -0.30078,-0.15625 -0.41797,0.0859 -0.17969,0.37109 0.0703,0.0859 0.1836,0.25782 0.25391,0.38672 0.0664,0.125 0.16016,0.27344 0.20313,0.32813 0.17968,0.22656 0.62109,0.72265 1.14062,1.28906 0.52734,0.57813 0.5625,0.74219 0.38672,1.85938 -0.16406,1.01171 -0.17188,1.11718 -0.15625,1.76171 0.0156,0.65625 0.0312,0.74219 0.21094,1.20313 0.5039,1.26562 1.86718,1.49219 3.38672,0.5625 0.10546,-0.0664 0.21875,-0.13281 0.25,-0.15234 0.27343,-0.16797 0.8125,-0.60547 1.14062,-0.9375 0.24609,-0.24219 0.68359,-0.73829 0.75,-0.84375 0.0352,-0.0508 0.11328,-0.16407 0.17969,-0.2461 0.42187,-0.52734 1.1875,-1.91406 1.1875,-2.14453 0,-0.0273 0.0117,-0.0625 0.0273,-0.0781 0.0469,-0.0547 0.19531,-0.64454 0.23828,-0.95313 0.13282,-0.95703 -0.0898,-1.89062 -0.65625,-2.75781 -0.47656,-0.73047 -0.98047,-1.29688 -2.01172,-2.26172 -0.625,-0.58594 -1.14062,-1.05859 -1.35546,-1.24609 -0.082,-0.0703 -0.17969,-0.15625 -0.21485,-0.19141 -0.0391,-0.0391 -0.17187,-0.15625 -0.29687,-0.26563 -0.1211,-0.10937 -0.25,-0.21875 -0.27735,-0.24609 -0.0312,-0.0273 -0.125,-0.11719 -0.21484,-0.19531 -0.14844,-0.13281 -0.66797,-0.61328 -1.01953,-0.94141 -0.39844,-0.37109 -0.42578,-0.38672 -0.50391,-0.30859 m -62.26504,2.08201 c -0.72657,0.53516 -0.52735,2.22656 0.38281,3.20312 0.29297,0.31641 0.87891,0.70704 1.05859,0.70704 0.0312,0 0.0703,0.0117 0.0898,0.0312 0.0508,0.0547 0.53515,0.10156 0.78515,0.0781 1.16797,-0.10547 2.15625,-1.29297 2.19532,-2.63672 0.0156,-0.45703 -0.082,-0.55859 -0.33204,-0.33984 -0.0664,0.0586 -0.18359,0.14844 -0.26562,0.20312 -0.082,0.0547 -0.23438,0.19922 -0.34375,0.31641 -0.28906,0.31641 -0.53906,0.5625 -0.73828,0.73047 -0.0977,0.082 -0.19531,0.16797 -0.21875,0.1914 -0.54297,0.51954 -1.41406,0.0977 -1.91406,-0.92968 -0.1836,-0.3711 -0.40625,-1.14453 -0.40625,-1.39063 0,-0.25 -0.10157,-0.30469 -0.29297,-0.16406"
           fill-opacity="1"
           fill-rule="evenodd"
           id="path1946" /></g><g
         fill="#ffffff"
         fill-opacity="1"
         id="g1956"
         transform="translate(86.389074,0.2282445)"><g
           transform="translate(50.684752,253.90156)"
           id="g1954"><g
             id="g1952"><path
               d="m 34.875,-28.546875 c 0,0.792969 -0.324219,1.710937 -0.96875,2.75 -0.542969,0.980469 -1.148438,1.652344 -1.8125,2.015625 -0.667969,0.355469 -1,0.3125 -1,-0.125 0,-0.03125 0.195312,-0.242188 0.59375,-0.640625 1.1875,-1.125 1.78125,-2.046875 1.78125,-2.765625 0,-1.550781 -1.53125,-2.328125 -4.59375,-2.328125 -1.292969,0 -3.007812,0.246094 -5.140625,0.734375 -2.125,0.492188 -4.179687,1.277344 -6.15625,2.359375 -2.3125,1.261719 -3.46875,2.359375 -3.46875,3.296875 0,0.75 0.703125,1.46875 2.109375,2.15625 0.757812,0.367188 2.265625,0.96875 4.515625,1.8125 2.257813,0.84375 4.082031,1.585938 5.46875,2.21875 1.382813,0.636719 2.695313,1.53125 3.9375,2.6875 1.25,1.148438 1.875,2.421875 1.875,3.828125 0,1.40625 -0.828125,2.9375 -2.484375,4.59375 -2.53125,2.417969 -5.820312,4.429687 -9.859375,6.03125 -4.03125,1.601563 -7.492187,2.40625 -10.375,2.40625 -5.699219,0 -8.546875,-1.605469 -8.546875,-4.8125 0,-3.207031 1.75,-5.925781 5.25,-8.15625 2.882812,-1.988281 5.914062,-2.984375 9.09375,-2.984375 0.75,0 1.085938,0.125 1.015625,0.375 -0.07422,0.261719 -0.617187,0.402344 -1.625,0.421875 -1,0.01172 -2.296875,0.351563 -3.890625,1.015625 -1.585938,0.667969 -3.058594,1.632812 -4.421875,2.890625 -1.804687,1.625 -2.703125,3.25 -2.703125,4.875 0,1.011719 0.484375,1.914063 1.453125,2.703125 C 5.890625,-0.394531 7.742188,0 10.484375,0 c 2.738281,0 5.445313,-0.429688 8.125,-1.296875 5.757813,-1.90625 9.363281,-4 10.8125,-6.28125 0.570313,-0.820313 0.859375,-1.523437 0.859375,-2.109375 0,-1.65625 -1.011719,-2.953125 -3.03125,-3.890625 -2.34375,-1.082031 -5.625,-2.328125 -9.84375,-3.734375 -1.617188,-0.53125 -2.992188,-1.238281 -4.125,-2.125 -1.136719,-0.882812 -1.703125,-1.945312 -1.703125,-3.1875 0,-1.25 0.671875,-2.476562 2.015625,-3.6875 1.351562,-1.207031 2.988281,-2.171875 4.90625,-2.890625 4.101562,-1.550781 7.582031,-2.328125 10.4375,-2.328125 3.957031,0 5.9375,0.996094 5.9375,2.984375 z m 0,0"
               id="path1950" /></g></g></g><g
         fill="#ffffff"
         fill-opacity="1"
         id="g1964"
         transform="translate(86.389074,0.2282445)"><g
           transform="translate(82.701347,253.90156)"
           id="g1962"><g
             id="g1960"><path
               d="m 13.359375,-5.953125 c 0.644531,-1.332031 0.96875,-2.359375 0.96875,-3.078125 0,-0.71875 -0.08594,-1.285156 -0.25,-1.703125 -0.15625,-0.414063 -0.08594,-0.765625 0.21875,-1.046875 0.3125,-0.289062 0.703125,-0.398438 1.171875,-0.328125 0.71875,0.179687 1.078125,0.992187 1.078125,2.4375 0,1.4375 -0.851563,3.328125 -2.546875,5.671875 0.03906,0.96875 0.546875,1.453125 1.515625,1.453125 0.976563,0 2.457031,-1.039063 4.4375,-3.125 0.9375,-1.082031 1.519531,-1.785156 1.75,-2.109375 0.238281,-0.332031 0.445313,-0.453125 0.625,-0.359375 0.1875,0.09375 0.28125,0.179687 0.28125,0.25 0,0.355469 -0.652344,1.292969 -1.953125,2.8125 -2.054688,2.523437 -3.871094,3.78125 -5.453125,3.78125 -1.054687,0 -1.792969,-0.453125 -2.21875,-1.359375 C 12.253906,-1.894531 11.550781,-1.191406 10.875,-0.546875 9.46875,0.648438 7.898438,1.25 6.171875,1.25 5.191406,1.25 4.378906,1.015625 3.734375,0.546875 2.472656,-0.210938 1.84375,-1.566406 1.84375,-3.515625 1.84375,-5.640625 2.5625,-7.800781 4,-10 c 0.832031,-1.300781 1.804688,-2.4375 2.921875,-3.40625 1.769531,-1.550781 3.445313,-2.328125 5.03125,-2.328125 0.394531,0 0.773437,0.05469 1.140625,0.15625 1.070312,0.367187 1.609375,1.054687 1.609375,2.0625 0,0.824219 -0.214844,1.234375 -0.640625,1.234375 -0.179688,-0.07031 -0.265625,-0.34375 -0.265625,-0.8125 0,-0.644531 -0.367187,-0.96875 -1.09375,-0.96875 -1.261719,0 -2.886719,1.15625 -4.875,3.46875 -1.980469,2.304688 -3.167969,4.625 -3.5625,6.96875 -0.074219,0.398438 -0.109375,0.839844 -0.109375,1.328125 0,0.492187 0.160156,1.054687 0.484375,1.6875 0.332031,0.625 0.9375,0.9375 1.8125,0.9375 0.882813,0 1.847656,-0.3945312 2.890625,-1.1875 1.050781,-0.800781 1.992188,-1.8125 2.828125,-3.03125 L 12,-4.21875 c -0.148438,-0.570312 -0.07422,-1.039062 0.21875,-1.40625 0.289062,-0.363281 0.671875,-0.472656 1.140625,-0.328125 z m 0,0"
               id="path1958" /></g></g></g><g
         fill="#ffffff"
         fill-opacity="1"
         id="g1972"
         transform="translate(86.389074,0.2282445)"><g
           transform="translate(101.68416,253.90156)"
           id="g1970"><g
             id="g1968"><path
               d="m 27.578125,-7.578125 c -0.542969,0.980469 -1.515625,2.230469 -2.921875,3.75 -1.40625,1.511719 -2.667969,2.679687 -3.78125,3.5 C 19.4375,0.722656 17.867188,1.25 16.171875,1.25 c -0.324219,0 -0.75,-0.15625 -1.28125,-0.46875 -0.523437,-0.304688 -0.871094,-0.7421875 -1.046875,-1.3125 -0.179688,-0.582031 -0.265625,-1.144531 -0.265625,-1.6875 0,-1.875 0.359375,-3.726562 1.078125,-5.5625 -0.105469,0.074219 -0.601562,0.839844 -1.484375,2.296875 -0.886719,1.460937 -1.96875,2.839844 -3.25,4.140625 C 8.640625,-0.0507812 7.351562,0.59375 6.0625,0.59375 5.445312,0.59375 4.742188,0.429688 3.953125,0.109375 2.503906,-0.535156 1.78125,-1.726562 1.78125,-3.46875 c 0,-2.125 0.726562,-4.3125 2.1875,-6.5625 1.46875,-2.25 2.398438,-3.445312 2.796875,-3.59375 0.539063,-0.144531 1.050781,-0.21875 1.53125,-0.21875 0.488281,0 0.984375,0.101562 1.484375,0.296875 0.507812,0.199219 0.441406,0.53125 -0.203125,1 -2.492187,2.273437 -4.261719,4.796875 -5.3125,7.578125 -0.398437,1.074219 -0.59375,1.980469 -0.59375,2.71875 0,0.742188 0.1875,1.21875 0.5625,1.4375 0.382813,0.21875 0.757813,0.328125 1.125,0.328125 0.863281,0 2.039063,-0.601563 3.53125,-1.8125 1.5,-1.207031 3.566406,-3.722656 6.203125,-7.546875 0.351562,-0.539062 0.976562,-1.59375 1.875,-3.15625 0.90625,-1.570312 1.453125,-2.503906 1.640625,-2.796875 0.570313,0 1.242187,0.136719 2.015625,0.40625 0.78125,0.273437 1.046875,0.625 0.796875,1.0625 -1.742187,2.886719 -2.964844,5.015625 -3.671875,6.390625 -0.699219,1.367188 -1.171875,2.964844 -1.421875,4.796875 -0.03125,0.324219 -0.04687,0.742187 -0.04687,1.25 0,0.5 0.140625,0.914063 0.421875,1.234375 0.539063,0.5859375 1.289063,0.6171875 2.25,0.09375 0.957031,-0.53125 2.265625,-1.539062 3.921875,-3.03125 1.65625,-1.5 2.988281,-2.96875 4,-4.40625 0.144531,-0.1875 0.316406,-0.234375 0.515625,-0.140625 0.195313,0.09375 0.296875,0.1875 0.296875,0.28125 0,0.085937 -0.03906,0.179687 -0.109375,0.28125 z m 0,0"
               id="path1966" /></g></g></g><g
         fill="#ffffff"
         fill-opacity="1"
         id="g1980"
         transform="translate(86.389074,0.2282445)"><g
           transform="translate(125.7507,253.90156)"
           id="g1978"><g
             id="g1976"><path
               d="m 20.921875,-27.578125 c 0.4375,-0.789063 0.65625,-1.40625 0.65625,-1.84375 0,-0.75 -0.308594,-1.125 -0.921875,-1.125 -0.5,0 -1.132812,0.289063 -1.890625,0.859375 -2.886719,2.230469 -5.679687,5.761719 -8.375,10.59375 -2.167969,3.898438 -3.757813,7.234375 -4.765625,10.015625 2.488281,-1.695313 5.273438,-4.457031 8.359375,-8.28125 3.082031,-3.820313 5.394531,-7.226563 6.9375,-10.21875 z M 4.8125,-6.921875 C 4.375,-5.691406 4.140625,-4.867188 4.109375,-4.453125 4.078125,-4.046875 4.0625,-3.488281 4.0625,-2.78125 c 0,0.699219 0.175781,1.339844 0.53125,1.921875 0.613281,0.96875 1.640625,1.035156 3.078125,0.203125 C 8.753906,-1.226562 10.125,-2.28125 11.78125,-3.8125 13.445312,-5.34375 14.726562,-6.738281 15.625,-8 c 0.07031,-0.113281 0.179688,-0.171875 0.328125,-0.171875 0.320313,0 0.410156,0.234375 0.265625,0.703125 -0.542969,0.980469 -1.542969,2.230469 -3,3.75 C 11.757812,-2.207031 10.4375,-1.007812 9.25,-0.125 8.0625,0.75 6.867188,1.1875 5.671875,1.1875 c -2.742187,0 -4.109375,-1.332031 -4.109375,-4 0,-0.101562 0,-0.210938 0,-0.328125 0.144531,-2.519531 1.425781,-6.328125 3.84375,-11.421875 2.414062,-5.101562 4.597656,-8.957031 6.546875,-11.5625 L 13.625,-28.234375 c 0.394531,-0.46875 0.972656,-1.039063 1.734375,-1.71875 1.4375,-1.375 2.921875,-2.0625 4.453125,-2.0625 1.539062,0 2.578125,0.46875 3.109375,1.40625 0.1875,0.324219 0.28125,0.792969 0.28125,1.40625 0,0.617187 -0.273437,1.480469 -0.8125,2.59375 -3.71875,6.460937 -9.578125,13.023437 -17.578125,19.6875 z m 0,0"
               id="path1974" /></g></g></g><g
         fill="#ffffff"
         fill-opacity="1"
         id="g1988"
         transform="translate(86.389074,0.2282445)"><g
           transform="translate(138.45999,253.90156)"
           id="g1986"><g
             id="g1984"><path
               d="m 19.140625,-11.25 c 0,1.585938 -0.652344,3.199219 -1.953125,4.84375 -1.292969,1.636719 -2.824219,3.070312 -4.59375,4.296875 -1.625,1.042969 -3.277344,1.851563 -4.953125,2.421875 -1.679687,0.582031 -2.9375,0.875 -3.78125,0.875 -0.84375,0 -1.539063,-0.089844 -2.078125,-0.265625 -0.792969,1.832031 -1.890625,4.914063 -3.296875,9.25 -0.144531,0.46875 -0.226563,1.050781 -0.25,1.75 -0.019531,0.707031 -0.234375,1.664063 -0.640625,2.875 -0.414062,1.207031 -0.820312,2.171875 -1.21875,2.890625 -0.1875,0.425781 -0.710938,0.773438 -1.578125,1.046875 -0.863281,0.269531 -1.472656,0.40625 -1.828125,0.40625 -0.363281,0 -0.546875,-0.179687 -0.546875,-0.53125 0,-0.148437 0.054687,-0.34375 0.15625,-0.59375 1.667969,-3.398437 3.761719,-8.386719 6.28125,-14.96875 2.519531,-6.570313 3.90625,-10.21875 4.15625,-10.9375 0.257813,-0.726563 0.625,-1.773437 1.09375,-3.140625 0.789063,-2.3125 1.222656,-4.039062 1.296875,-5.1875 0,-0.4375 0.570312,-0.65625 1.71875,-0.65625 1.15625,0 1.734375,0.417969 1.734375,1.25 0,0.617188 -0.355469,1.476562 -1.0625,2.578125 -0.699219,1.09375 -1.730469,3.28125 -3.09375,6.5625 2.082031,-3.175781 3.773437,-5.25 5.078125,-6.21875 1.726562,-1.40625 3.40625,-2.109375 5.03125,-2.109375 0.644531,0 1.289062,0.105469 1.9375,0.3125 1.40625,0.511719 2.179688,1.324219 2.328125,2.4375 0.03906,0.292969 0.0625,0.5625 0.0625,0.8125 z M 16.484375,-12 c 0,-1.257812 -0.484375,-1.890625 -1.453125,-1.890625 -0.585938,0 -1.527344,0.34375 -2.828125,1.03125 -1.292969,0.679687 -2.589844,1.703125 -3.890625,3.078125 -1.292969,1.367188 -2.292969,2.652344 -3,3.859375 C 4.613281,-4.710938 3.957031,-3.46875 3.34375,-2.1875 2.726562,-0.90625 2.367188,-0.160156 2.265625,0.046875 4.460938,0.046875 6.875,-0.90625 9.5,-2.8125 12.132812,-4.71875 14.101562,-6.789062 15.40625,-9.03125 16.125,-10.144531 16.484375,-11.132812 16.484375,-12 Z m 0,0"
               id="path1982" /></g></g></g><g
         fill="#ffffff"
         fill-opacity="1"
         id="g1996"
         transform="translate(86.389074,0.2282445)"><g
           transform="translate(158.47036,253.90156)"
           id="g1994"><g
             id="g1992"><path
               d="m 9.296875,1.359375 c -1.835937,0 -2.75,-1.109375 -2.75,-3.328125 0,-2.21875 1.582031,-4.953125 4.75,-8.203125 0.257813,-0.25 0.441406,-0.445313 0.546875,-0.59375 l 0.375,-0.53125 c 0.507812,-0.6875 0.742188,-1.117187 0.703125,-1.296875 l -0.15625,-0.5 c -0.148437,-0.425781 -0.746094,-0.738281 -1.796875,-0.9375 -1.042969,-0.195312 -1.886719,-0.296875 -2.53125,-0.296875 -3.25,4.574219 -5.125,7.1875 -5.625,7.84375 -0.5,0.648437 -0.84375,0.917969 -1.03125,0.8125 -0.179688,-0.113281 -0.265625,-0.238281 -0.265625,-0.375 0,-0.144531 0.109375,-0.363281 0.328125,-0.65625 1.945312,-2.382813 3.625,-4.925781 5.03125,-7.625 -0.4375,-0.07031 -0.765625,-0.222656 -0.984375,-0.453125 -0.21875,-0.238281 -0.242187,-0.632812 -0.0625,-1.1875 0.1875,-0.5625 0.738281,-1.3125 1.65625,-2.25 0.925781,-0.9375 1.726563,-1.566406 2.40625,-1.890625 0.6875,-0.332031 1.117187,-0.53125 1.296875,-0.59375 0.1875,-0.07031 0.382812,-0.109375 0.59375,-0.109375 0.4375,0 0.296875,0.648438 -0.421875,1.9375 L 9.25,-15.515625 c 1.625,0.105469 3.007812,0.15625 4.15625,0.15625 l 1.890625,-0.04687 c 0.613281,0 1.066406,0.08594 1.359375,0.25 0.289062,0.15625 0.363281,0.433594 0.21875,0.828125 -0.25,0.6875 -0.882812,1.605469 -1.890625,2.75 -2.167969,2.53125 -3.792969,5.21875 -4.875,8.0625 -0.25,0.6875 -0.375,1.28125 -0.375,1.78125 0,1.054687 0.378906,1.578125 1.140625,1.578125 0.25,0 0.722656,-0.195312 1.421875,-0.59375 0.707031,-0.40625 1.890625,-1.351562 3.546875,-2.84375 1.65625,-1.5 2.988281,-2.96875 4,-4.40625 0.144531,-0.1875 0.316406,-0.234375 0.515625,-0.140625 0.195313,0.09375 0.296875,0.1875 0.296875,0.28125 0,0.085937 -0.03906,0.179687 -0.109375,0.28125 -0.542969,0.980469 -1.515625,2.230469 -2.921875,3.75 -1.40625,1.511719 -2.777344,2.734375 -4.109375,3.671875 -1.292969,1.007812 -2.699219,1.515625 -4.21875,1.515625 z m 0,0"
               id="path1990" /></g></g></g><g
         fill="#ffffff"
         fill-opacity="1"
         id="g2004"
         transform="translate(86.389074,0.2282445)"><g
           transform="translate(175.50622,253.90156)"
           id="g2002"><g
             id="g2000"><path
               d="m 7.359375,-14.984375 c 0.894531,0 1.4375,0.292969 1.625,0.875 0.0625,0.324219 0.00781,0.640625 -0.15625,0.953125 -0.15625,0.304688 -0.273437,0.542969 -0.34375,0.71875 -0.074219,0.179688 -0.125,0.324219 -0.15625,0.4375 -0.179687,0.355469 -0.359375,0.695312 -0.546875,1.015625 -2.054688,4.117187 -3.132812,6.730469 -3.234375,7.84375 -0.042969,0.324219 -0.0625,0.742187 -0.0625,1.25 0,0.5 0.144531,0.914063 0.4375,1.234375 0.5,0.5859375 1.21875,0.625 2.15625,0.125 C 8.015625,-1.039062 9.320312,-2.050781 11,-3.5625 c 1.675781,-1.519531 3.039062,-3 4.09375,-4.4375 0.132812,-0.1875 0.289062,-0.234375 0.46875,-0.140625 0.1875,0.09375 0.28125,0.1875 0.28125,0.28125 0,0.085937 -0.03906,0.179687 -0.109375,0.28125 C 15.191406,-6.597656 14.21875,-5.351562 12.8125,-3.84375 10.507812,-1.351562 8.582031,0.175781 7.03125,0.75 6.125,1.082031 5.367188,1.25 4.765625,1.25 c -1.449219,0 -2.40625,-0.6875 -2.875,-2.0625 -0.074219,-0.25 -0.109375,-0.554688 -0.109375,-0.921875 0,-1.257813 0.578125,-3.171875 1.734375,-5.734375 -0.179687,0.398438 -0.882813,1.296875 -2.109375,2.703125 -0.324219,0.367187 -0.574219,0.367187 -0.75,0 -0.042969,-0.0625 -0.0625,-0.15625 -0.0625,-0.28125 0,-0.132813 0.070312,-0.289063 0.21875,-0.46875 1.769531,-2.195313 3.15625,-4.054687 4.15625,-5.578125 -0.074219,-0.175781 -0.039062,-0.40625 0.109375,-0.6875 0.726563,-2.019531 1.359375,-3.085938 1.890625,-3.203125 0.113281,0 0.242188,0 0.390625,0 z m 4.265625,-7.1875 -0.4375,1.734375 c 0,0.324219 -0.234375,0.84375 -0.703125,1.5625 -0.46875,0.71875 -0.828125,1.078125 -1.078125,1.078125 -1.554688,0 -2.328125,-0.375 -2.328125,-1.125 0,-0.144531 0.773437,-0.8125 2.328125,-2 L 10.328125,-21.625 c 0.570313,-0.507812 0.929687,-0.765625 1.078125,-0.765625 0.144531,0 0.21875,0.07422 0.21875,0.21875 z m 0,0"
               id="path1998" /></g></g></g><g
         fill="#ffffff"
         fill-opacity="1"
         id="g2012"
         transform="translate(86.389074,0.2282445)"><g
           transform="translate(187.72877,253.90156)"
           id="g2010"><g
             id="g2008"><path
               d="m 17.25,-15.359375 c 0.820312,0 1.234375,0.445313 1.234375,1.328125 0,0.886719 -0.417969,2.105469 -1.25,3.65625 -0.824219,1.542969 -1.433594,2.804688 -1.828125,3.78125 -0.6875,1.65625 -1.03125,2.980469 -1.03125,3.96875 0,0.992188 0.144531,1.648438 0.4375,1.96875 0.539062,0.5859375 1.28125,0.6171875 2.21875,0.09375 0.9375,-0.53125 2.242188,-1.539062 3.921875,-3.03125 1.675781,-1.5 3.019531,-2.96875 4.03125,-4.40625 0.132813,-0.1875 0.300781,-0.234375 0.5,-0.140625 0.195313,0.09375 0.296875,0.1875 0.296875,0.28125 0,0.085937 -0.03125,0.179687 -0.09375,0.28125 -0.542969,0.980469 -1.515625,2.230469 -2.921875,3.75 -1.40625,1.511719 -2.761719,2.726563 -4.0625,3.640625 -1.304687,0.914062 -2.585937,1.375 -3.84375,1.375 -1.21875,-0.03125 -2.085937,-0.3125 -2.59375,-0.84375 -0.5,-0.519531 -0.75,-1.175781 -0.75,-1.96875 0,-0.789062 0.06641,-1.554688 0.203125,-2.296875 0.144531,-0.738281 0.414062,-1.59375 0.8125,-2.5625 0.65625,-1.550781 1.222656,-2.757813 1.703125,-3.625 0.488281,-0.863281 0.734375,-1.429687 0.734375,-1.703125 0,-0.269531 -0.140625,-0.40625 -0.421875,-0.40625 -0.585937,0 -1.6875,0.703125 -3.3125,2.109375 C 10.117188,-9.066406 8.46875,-7.09375 6.28125,-4.1875 4.101562,-1.289062 2.875,0.25 2.59375,0.4375 1.289062,1.082031 0.476562,1.40625 0.15625,1.40625 c -0.320312,0 -0.484375,-0.058594 -0.484375,-0.171875 0,-0.105469 0.039063,-0.257813 0.109375,-0.453125 0.074219,-0.199219 0.421875,-1.175781 1.046875,-2.9375 0.632813,-1.769531 1.320313,-3.707031 2.0625,-5.8125 0.738281,-2.113281 1.1875,-3.382812 1.34375,-3.8125 0.164063,-0.4375 0.273437,-0.804688 0.328125,-1.109375 0.050781,-0.3125 0.113281,-0.570313 0.1875,-0.78125 0.070312,-0.21875 0.207031,-0.460937 0.40625,-0.734375 0.195312,-0.269531 0.457031,-0.414062 0.78125,-0.4375 0.320312,-0.01953 0.734375,0.01563 1.234375,0.109375 0.507813,0.09375 0.765625,0.320313 0.765625,0.671875 0,0.25 -0.199219,0.804688 -0.59375,1.65625 -0.398438,0.84375 -1.53125,3.757812 -3.40625,8.734375 1.300781,-1.59375 2.941406,-3.425781 4.921875,-5.5 1.976563,-2.070313 3.65625,-3.644531 5.03125,-4.71875 1.375,-0.976563 2.492187,-1.46875 3.359375,-1.46875 z m 0,0"
               id="path2006" /></g></g></g><g
         fill="#ffffff"
         fill-opacity="1"
         id="g2020"
         transform="translate(86.389074,0.2282445)"><g
           transform="translate(209.84835,253.90156)"
           id="g2018"><g
             id="g2016"><path
               d="m 10.8125,-15.140625 c 2.78125,-0.25 4.46875,-0.375 5.0625,-0.375 0.59375,0 0.890625,0.08984 0.890625,0.265625 0,0.21875 -0.429687,0.449219 -1.28125,0.6875 -0.84375,0.230469 -2.90625,0.523438 -6.1875,0.875 -0.179687,0.335938 -0.390625,0.714844 -0.640625,1.140625 -0.542969,0.867187 -0.835938,1.386719 -0.875,1.5625 -2.054688,4.117187 -3.132812,6.730469 -3.234375,7.84375 -0.042969,0.324219 -0.0625,0.742187 -0.0625,1.25 0,0.5 0.144531,0.914063 0.4375,1.234375 0.5,0.5859375 1.21875,0.625 2.15625,0.125 C 8.015625,-1.039062 9.320312,-2.050781 11,-3.5625 c 1.675781,-1.519531 3.039062,-3 4.09375,-4.4375 0.132812,-0.1875 0.3125,-0.222656 0.53125,-0.109375 0.539062,0.25 -0.398438,1.671875 -2.8125,4.265625 C 10.507812,-1.351562 8.582031,0.175781 7.03125,0.75 6.125,1.082031 5.367188,1.25 4.765625,1.25 c -1.449219,0 -2.40625,-0.6875 -2.875,-2.0625 -0.074219,-0.25 -0.109375,-0.554688 -0.109375,-0.921875 0,-1.257813 0.578125,-3.171875 1.734375,-5.734375 -0.179687,0.398438 -0.882813,1.296875 -2.109375,2.703125 -0.324219,0.367187 -0.574219,0.367187 -0.75,0 -0.042969,-0.0625 -0.0625,-0.15625 -0.0625,-0.28125 0,-0.132813 0.070312,-0.289063 0.21875,-0.46875 1.769531,-2.195313 3.15625,-4.054687 4.15625,-5.578125 0,-0.03125 0.398438,-0.785156 1.203125,-2.265625 -0.367187,0.07422 -0.742187,0.109375 -1.125,0.109375 -0.375,0 -0.652344,-0.113281 -0.828125,-0.34375 -0.179688,-0.238281 -0.199219,-0.519531 -0.0625,-0.84375 0.257812,-0.570312 1.21875,-0.894531 2.875,-0.96875 0.03125,-0.07031 0.101562,-0.109375 0.21875,-0.109375 l 2.703125,-5.03125 c 0.144531,-0.289063 0.304687,-0.585937 0.484375,-0.890625 0.175781,-0.3125 0.3125,-0.546875 0.40625,-0.703125 0.09375,-0.164063 0.191406,-0.335937 0.296875,-0.515625 0.101563,-0.175781 0.191406,-0.300781 0.265625,-0.375 0.07031,-0.07031 0.144531,-0.144531 0.21875,-0.21875 0.144531,-0.21875 0.566406,-0.328125 1.265625,-0.328125 0.707031,0 1.1875,0.199219 1.4375,0.59375 C 14.441406,-22.835938 14.5,-22.59375 14.5,-22.25 c 0,0.34375 -0.132812,0.726562 -0.390625,1.140625 -0.25,0.40625 -0.523437,0.703125 -0.8125,0.890625 -0.28125,0.179688 -0.480469,0.375 -0.59375,0.59375 l -2.59375,4.53125 z m 0,0"
               id="path2014" /></g></g></g><rect
         style="fill:none;fill-opacity:1;stroke-width:0.75"
         id="rect2301"
         width="108.35559"
         height="59.170906"
         x="-100.98341"
         y="195.21295" /></g></g></svg>
